# xmcd
#
# Track frame offsets: 
#        150
#        13470
#        27160
#        39477
#        52730
#        66047
#        80130
#        92397
#        104970
#        119487
#
# Disc length: 1745 seconds
#
# Revision: 0
# Processed by: cddbd v1.5.2PL0 Copyright (c) Steve Scherf et al.
# Submitted via: ExactAudioCopyFreeDBPlugin 1.0
#
DISCID=8306cf0a
DTITLE=Hank Snow - Bluer Than Blue
DYEAR=1900
DGENRE=Country
TTITLE0=Bluer Than Blue
TTITLE1=My San Antonio Mamma
TTITLE2=The Hobo's Last Ride
TTITLE3=The Texas Cowboy
TTITLE4=We Met In The Hills Of Old Wyoming
TTITLE5=I'm Sending You Red Roses
TTITLE6=My Little Swiss Miss
TTITLE7=Polka Dot Blues
TTITLE8=The Galveston Rose
TTITLE9=Wandering On
EXTD=
EXTT0=
EXTT1=
EXTT2=
EXTT3=
EXTT4=
EXTT5=
EXTT6=
EXTT7=
EXTT8=
EXTT9=
PLAYORDER=
